<svg xmlns="http://www.w3.org/2000/svg" version="1.1" xmlns:xlink="http://www.w3.org/1999/xlink" xmlns:svgjs="http://svgjs.dev/svgjs" width="1500" height="1500" viewBox="0 0 1500 1500"><rect width="1500" height="1500" fill="#000000"></rect><g transform="matrix(0.6666666666666666,0,0,0.6666666666666666,249.39393939393938,476.90542429408407)"><svg viewBox="0 0 396 217" data-background-color="#000000" preserveAspectRatio="xMidYMid meet" height="821" width="1500" xmlns="http://www.w3.org/2000/svg" xmlns:xlink="http://www.w3.org/1999/xlink"><g id="tight-bounds" transform="matrix(1,0,0,1,0.2400000000000091,-0.22681560015145408)"><svg viewBox="0 0 395.52 217.4536312003029" height="217.4536312003029" width="395.52"><g><svg viewBox="0 0 395.52 217.4536312003029" height="217.4536312003029" width="395.52"><g><svg viewBox="0 0 395.52 217.4536312003029" height="217.4536312003029" width="395.52"><g id="textblocktransform"><svg viewBox="0 0 395.52 217.4536312003029" height="217.4536312003029" width="395.52" id="textblock"><g><svg viewBox="0 0 395.52 217.4536312003029" height="217.4536312003029" width="395.52"><g transform="matrix(1,0,0,1,0,0)"><svg width="395.52" viewBox="4.32 -34.99 64.47999999999999 35.45" height="217.4536312003029" data-palette-color="#ffffff"><path d="M4.32 0L4.32-34.55 16.77-34.55 16.77-24.44 25.46-31.01Q27.29-32.4 28.13-33.28 28.96-34.16 29.16-34.34 29.37-34.52 29.54-34.62L29.54-34.62Q29.83-34.81 30.29-34.81 30.74-34.81 31.01-34.56 31.27-34.3 31.27-34 31.27-33.69 31.2-33.48 31.13-33.28 30.91-33.01L30.91-33.01Q30.42-32.42 29.05-31.37L29.05-31.37 23.58-27.22 32.74-4.83Q33.01-4.2 33.25-3.71L33.25-3.71 33.64-2.83 34.08-2Q34.25-1.66 34.38-1.34 34.5-1.03 34.47-0.73 34.45-0.44 34.3-0.2L34.3-0.2Q33.96 0.34 33.47 0.34L33.47 0.34Q32.79 0.34 32.45-0.05L32.45-0.05Q32.01-0.59 31.79-1.25L31.79-1.25 31.35-2.61Q31.13-3.3 30.76-4.25L30.76-4.25 21.9-25.95 16.77-22.07 16.77 0 4.32 0ZM67.8-5.79L67.8-5.79Q68.8-5.79 68.8-4.66L68.8-4.66Q68.8-3.74 67.38-2.81L67.38-2.81Q64.74-1.07 62.94-0.54L62.94-0.54Q59.54 0.46 55.81 0.46 52.07 0.46 48.62-0.87 45.16-2.2 42.72-4.59L42.72-4.59Q37.62-9.62 37.62-17.58L37.62-17.58Q37.62-21.41 39.06-24.62 40.5-27.83 43.04-30.13L43.04-30.13Q48.41-34.99 56.54-34.99L56.54-34.99Q61.11-34.99 64.57-33.42L64.57-33.42Q68.26-31.79 68.26-30.64L68.26-30.64Q68.26-30.18 67.95-29.83 67.65-29.49 67.26-29.49L67.26-29.49Q66.48-29.49 65.84-30.19 65.21-30.88 64.12-31.45 63.03-32.01 61.74-32.42L61.74-32.42Q59.1-33.23 56.94-33.23 54.78-33.23 53.37-32.93L53.37-32.93 53.37-1.64Q55.08-1.34 56.39-1.34 57.71-1.34 59.08-1.51 60.45-1.68 61.77-2.08L61.77-2.08Q64.72-2.95 66.21-4.66L66.21-4.66Q66.75-5.3 67.06-5.54 67.38-5.79 67.8-5.79Z" opacity="1" transform="matrix(1,0,0,1,0,0)" fill="#ffffff" class="wordmark-text-0" data-fill-palette-color="primary" id="text-0"></path></svg></g></svg></g></svg></g></svg></g></svg></g><defs></defs></svg><rect width="395.52" height="217.4536312003029" fill="none" stroke="none" visibility="hidden"></rect></g></svg></g></svg>